<?xml version="1.0" standalone="no"?>
<!DOCTYPE svg PUBLIC "-//W3C//DTD SVG 20010904//EN"
 "http://www.w3.org/TR/2001/REC-SVG-20010904/DTD/svg10.dtd">
<svg version="1.0" xmlns="http://www.w3.org/2000/svg"
 width="100.000000pt" height="103.000000pt" viewBox="0 0 100.000000 103.000000"
 preserveAspectRatio="xMidYMid meet">

<g transform="translate(0.000000,103.000000) scale(0.100000,-0.100000)"
fill="#000000" stroke="none">
<path d="M510 930 c-9 -6 -10 -10 -3 -10 6 0 15 5 18 10 8 12 4 12 -15 0z"/>
<path d="M500 886 c-4 -3 -38 -7 -78 -10 -58 -4 -82 -10 -122 -35 -28 -17 -57
-31 -66 -31 -9 0 -18 -9 -21 -20 -3 -11 -10 -20 -15 -20 -5 0 -8 -8 -6 -17 2
-13 -5 -19 -24 -21 -17 -2 -28 -9 -28 -18 0 -8 -7 -17 -15 -20 -8 -4 -12 -11
-8 -17 4 -7 7 -29 8 -49 1 -21 7 -44 13 -50 19 -19 14 -37 -13 -50 -20 -9 -25
-18 -23 -44 1 -20 6 -30 14 -27 6 2 19 -4 29 -13 14 -15 16 -29 11 -75 -4 -45
-2 -58 9 -63 24 -9 17 -33 -14 -46 -16 -6 -38 -21 -48 -32 -17 -20 -17 -20 20
-13 32 6 36 5 31 -9 -4 -9 -3 -16 2 -15 20 5 117 -32 144 -55 43 -35 116 -62
134 -47 8 7 29 9 50 6 28 -5 35 -3 30 8 -5 15 55 42 112 50 17 3 40 10 51 15
11 6 43 12 71 14 27 2 48 5 46 7 -3 3 6 11 18 18 l23 12 -25 1 -25 0 23 18
c24 19 21 32 -8 32 -10 0 -16 7 -15 18 2 27 14 42 35 42 11 0 22 10 26 23 3
12 13 29 20 38 13 14 12 18 -1 29 -8 7 -15 18 -15 25 0 8 -5 15 -12 17 -6 2
-12 11 -14 20 -1 11 3 15 14 11 12 -5 14 -2 9 11 -4 10 -3 15 3 11 6 -3 10 -1
10 5 0 6 -11 16 -25 22 -26 12 -34 28 -12 28 6 0 13 11 13 25 2 31 1 31 -42
-1 -21 -16 -34 -21 -34 -13 0 7 -8 21 -17 32 -17 18 -17 20 12 43 25 20 27 24
12 30 -9 3 -17 15 -17 25 0 10 -5 19 -11 19 -6 0 -9 6 -6 14 13 32 -66 137
-101 135 -10 0 -12 -3 -4 -6 6 -2 12 -9 12 -14 0 -15 -22 -10 -35 7 -11 16
-94 32 -105 20z"/>
</g>
</svg>
